<?xml version="1.0" encoding="UTF-8"?>
<svg width="140" height="32" viewBox="0 0 140 32" fill="none" xmlns="http://www.w3.org/2000/svg">
    <!-- Main logo mark - abstract C -->
    <g>
        <!-- Outer curve -->
        <path d="M18 8C18 8 14 8 11.5 10.5C9 13 9 15.5 9 16C9 16.5 9 19 11.5 21.5C14 24 18 24 18 24" 
              stroke="#2c353d" 
              stroke-width="2.5" 
              stroke-linecap="round"
              fill="none"/>
        <!-- Connection lines -->
        <path d="M5 12L9 15M5 20L9 17" 
              stroke="#2c353d" 
              stroke-width="2" 
              stroke-linecap="round"/>
    </g>
    
    <!-- Wordmark -->
    <g fill="#2c353d">
        <!-- Core -->
        <path d="M40 20h-1.5c-1 0-1.8-.3-2.4-.9-.6-.6-.9-1.4-.9-2.4v-1.4c0-1 .3-1.8.9-2.4.6-.6 1.4-.9 2.4-.9H40v1.6h-1.5c-.5 0-.9.2-1.2.5-.3.3-.5.7-.5 1.2v1.4c0 .5.2.9.5 1.2.3.3.7.5 1.2.5H40V20z"/>
        <path d="M47 20h-1.6l-2.8-3.2V20H41V12h1.6v4.4l2.6-2.9h1.9l-3 3.2L47 20z"/>
        <path d="M53 20h-5V12h4.8v1.5h-3.2v1.7h2.8v1.5h-2.8v1.7H53V20z"/>
        <!-- star -->
        <path d="M62 20h-1.6l-2.8-3.2V20h-1.6V12h1.6v4.4l2.6-2.9h1.9l-3 3.2L62 20z"/>
        <path d="M68 20h-1.5c-1 0-1.8-.3-2.4-.9-.6-.6-.9-1.4-.9-2.4v-1.4c0-1 .3-1.8.9-2.4.6-.6 1.4-.9 2.4-.9H68v1.6h-1.5c-.5 0-.9.2-1.2.5-.3.3-.5.7-.5 1.2v1.4c0 .5.2.9.5 1.2.3.3.7.5 1.2.5H68V20z"/>
        <path d="M74 20h-5V12h4.8v1.5h-3.2v1.7h2.8v1.5h-2.8v1.7H74V20z"/>
    </g>
</svg> 